<svg width="12" height="9" viewBox="0 0 12 9" fill="none" xmlns="http://www.w3.org/2000/svg">
<path d="M8.5 8.5H11V7.5C11 7.18827 10.9028 6.88429 10.7221 6.63031C10.5413 6.37634 10.2859 6.18499 9.99137 6.08288C9.69684 5.98076 9.37781 5.97294 9.07863 6.06051C8.77945 6.14808 8.51499 6.32669 8.322 6.5715M8.5 8.5H3.5M8.5 8.5V7.5C8.5 7.172 8.437 6.8585 8.322 6.5715M8.322 6.5715C8.13632 6.10748 7.81588 5.70973 7.402 5.42956C6.98812 5.14939 6.49979 4.99965 6 4.99965C5.50021 4.99965 5.01188 5.14939 4.598 5.42956C4.18412 5.70973 3.86368 6.10748 3.678 6.5715M3.5 8.5H1V7.5C1.00002 7.18827 1.09717 6.88429 1.27793 6.63031C1.45869 6.37634 1.71409 6.18499 2.00863 6.08288C2.30316 5.98076 2.62219 5.97294 2.92137 6.06051C3.22055 6.14808 3.48501 6.32669 3.678 6.5715M3.5 8.5V7.5C3.5 7.172 3.563 6.8585 3.678 6.5715M7.5 2C7.5 2.39782 7.34196 2.77936 7.06066 3.06066C6.77936 3.34196 6.39782 3.5 6 3.5C5.60218 3.5 5.22064 3.34196 4.93934 3.06066C4.65804 2.77936 4.5 2.39782 4.5 2C4.5 1.60218 4.65804 1.22064 4.93934 0.93934C5.22064 0.658035 5.60218 0.5 6 0.5C6.39782 0.5 6.77936 0.658035 7.06066 0.93934C7.34196 1.22064 7.5 1.60218 7.5 2ZM10.5 3.5C10.5 3.76522 10.3946 4.01957 10.2071 4.20711C10.0196 4.39464 9.76522 4.5 9.5 4.5C9.23478 4.5 8.98043 4.39464 8.79289 4.20711C8.60536 4.01957 8.5 3.76522 8.5 3.5C8.5 3.23478 8.60536 2.98043 8.79289 2.79289C8.98043 2.60536 9.23478 2.5 9.5 2.5C9.76522 2.5 10.0196 2.60536 10.2071 2.79289C10.3946 2.98043 10.5 3.23478 10.5 3.5ZM3.5 3.5C3.5 3.76522 3.39464 4.01957 3.20711 4.20711C3.01957 4.39464 2.76522 4.5 2.5 4.5C2.23478 4.5 1.98043 4.39464 1.79289 4.20711C1.60536 4.01957 1.5 3.76522 1.5 3.5C1.5 3.23478 1.60536 2.98043 1.79289 2.79289C1.98043 2.60536 2.23478 2.5 2.5 2.5C2.76522 2.5 3.01957 2.60536 3.20711 2.79289C3.39464 2.98043 3.5 3.23478 3.5 3.5Z" stroke="white" stroke-width="0.8" stroke-linecap="round" stroke-linejoin="round"/>
</svg>
