<svg width="12" height="11" viewBox="0 0 12 11" fill="none" xmlns="http://www.w3.org/2000/svg">
<path d="M4.70167 8.27778H7.29778M6 0.5V1.05556M9.53556 1.96444L9.14278 2.35722M11 5.5H10.4444M1.55556 5.5H1M2.85722 2.35722L2.46444 1.96444M4.03556 7.46444C3.64715 7.07594 3.38266 6.58098 3.27554 6.04217C3.16842 5.50335 3.22347 4.94487 3.43374 4.43734C3.644 3.92981 4.00004 3.49602 4.45683 3.19083C4.91361 2.88564 5.45064 2.72274 6 2.72274C6.54936 2.72274 7.08639 2.88564 7.54317 3.19083C7.99996 3.49602 8.356 3.92981 8.56626 4.43734C8.77653 4.94487 8.83158 5.50335 8.72446 6.04217C8.61734 6.58098 8.35285 7.07594 7.96444 7.46444L7.66 7.76833C7.48595 7.94242 7.34789 8.14908 7.25371 8.37652C7.15954 8.60396 7.11108 8.84772 7.11111 9.09389V9.38889C7.11111 9.68357 6.99405 9.96619 6.78567 10.1746C6.5773 10.3829 6.29469 10.5 6 10.5C5.70532 10.5 5.4227 10.3829 5.21433 10.1746C5.00595 9.96619 4.88889 9.68357 4.88889 9.38889V9.09389C4.88889 8.59667 4.69111 8.11944 4.34 7.76833L4.03556 7.46444Z" stroke="white" stroke-width="0.8" stroke-linecap="round" stroke-linejoin="round"/>
</svg>
