<svg width="10" height="9" viewBox="0 0 10 9" fill="none" xmlns="http://www.w3.org/2000/svg">
<path d="M5.23529 4.08708C5.23529 5.6637 4.76047 7.13497 3.93976 8.37762M2.32094 7.46312L2.34635 7.42277C3.00636 6.42397 3.3554 5.2673 3.35294 4.08708C3.35294 3.61151 3.55126 3.15542 3.90427 2.81914C4.25728 2.48286 4.73606 2.29394 5.23529 2.29394C5.73453 2.29394 6.21331 2.48286 6.56632 2.81914C6.91933 3.15542 7.11765 3.61151 7.11765 4.08708C7.11765 4.54299 7.08471 4.99217 7.02212 5.43194M6.02541 8.5C6.31587 7.94793 6.55096 7.37097 6.72753 6.77679M8.53412 7.28425C8.83765 6.26844 9 5.19569 9 4.08708C9.00015 3.45749 8.8263 2.83896 8.49594 2.29366C8.16558 1.74837 7.69035 1.29553 7.11801 0.980672C6.54568 0.665814 5.89642 0.500035 5.23551 0.5C4.57459 0.499965 3.92531 0.665675 3.35294 0.98047M1 6.0434C1.30118 5.45211 1.47059 4.7882 1.47059 4.08708C1.47059 3.43393 1.65412 2.82158 1.97412 2.29394" stroke="white" stroke-width="0.8" stroke-linecap="round" stroke-linejoin="round"/>
</svg>
